<svg width="46" height="46" viewBox="0 0 46 46" fill="none" xmlns="http://www.w3.org/2000/svg">
<g clip-path="url(#clip0)">
<path d="M46 23C46 27.5399 44.6527 31.9552 42.103 35.7683C41.5517 36.5931 40.4357 36.8149 39.6106 36.2635C38.7855 35.7118 38.564 34.5958 39.1154 33.7711C41.2685 30.5507 42.4062 26.8264 42.4062 23C42.4062 12.2995 33.7005 3.59375 23 3.59375C12.2995 3.59375 3.59375 12.2995 3.59375 23C3.59375 33.7005 12.2995 42.4062 23 42.4062C26.5492 42.4062 30.0208 41.4397 33.039 39.6116C33.8879 39.0975 34.9927 39.3688 35.5069 40.2177C36.021 41.0663 35.7497 42.1711 34.9011 42.6853C31.3211 44.8538 27.2058 46 23 46C16.8566 46 11.0806 43.6076 6.73653 39.2635C2.39244 34.9194 0 29.1434 0 23C0 16.8566 2.39244 11.0806 6.73653 6.73653C11.0806 2.39244 16.8566 0 23 0C29.1434 0 34.9194 2.39244 39.2635 6.73653C43.6076 11.0806 46 16.8566 46 23ZM23.0898 7.1875C22.0974 7.1875 21.293 7.99188 21.293 8.98438V19.8881C20.2191 20.5096 19.4961 21.6699 19.4961 23C19.4961 24.9846 21.1052 26.5938 23.0898 26.5938C23.4117 26.5938 23.7233 26.5509 24.0202 26.4716L28.7823 31.2333C29.1329 31.5843 29.593 31.7598 30.0527 31.7598C30.5125 31.7598 30.9726 31.5843 31.3232 31.2333C32.0251 30.5318 32.0251 29.394 31.3232 28.6924L26.5615 23.9304C26.6408 23.6335 26.6836 23.3218 26.6836 23C26.6836 21.6699 25.9606 20.5096 24.8867 19.8881V8.98438C24.8867 7.99188 24.0823 7.1875 23.0898 7.1875Z" fill="#3C0786"/>
</g>
<defs>
<clipPath id="clip0">
<rect width="46" height="46" fill="white"/>
</clipPath>
</defs>
</svg>
