<svg viewBox="0 0 261 261" fill="none" xmlns="http://www.w3.org/2000/svg">
<g clip-path="url(#clip0)">
<path d="M239.173 178.396H237.659C245.179 175.733 251.497 170.354 255.362 163.409C261.889 152.024 261.472 137.925 254.265 126.958C252.176 123.825 250.087 121.371 246.954 119.543V115.522C246.954 108.942 242.881 103.198 236.875 101.526L221.679 97.3487C218.859 96.5654 215.83 96.5654 213.01 97.3487L197.971 101.526C192.017 103.198 187.944 108.942 187.944 115.47V119.386C184.811 121.214 182.617 123.773 180.476 126.958C173.322 137.925 172.904 152.024 179.432 163.409C183.296 170.406 189.563 175.733 197.083 178.396H189.563C183.296 171.503 174.419 167.482 165.071 167.43H148.778V163.043C163.557 156.098 173.583 141.841 175.202 125.6C182.095 125.235 187.37 119.334 187.004 112.441C186.847 109.36 185.542 106.487 183.401 104.294C181.26 102.153 178.44 100.848 175.411 100.691V83.8756H181.207C183.505 83.8756 185.385 82.0479 185.385 79.7501C185.385 79.7501 185.385 79.7501 185.385 79.6979C185.385 61.786 170.815 47.2685 152.956 47.2685H123.816C117.706 47.2163 112.014 50.2973 108.62 55.3628C97.81 56.0417 91.7001 62.0993 88.4102 67.2692C86.1124 70.9247 84.598 74.9458 83.9714 79.1757C83.9714 79.3846 84.0236 79.5413 84.0236 79.7501V100.586C77.1304 100.952 71.856 106.853 72.2216 113.746C72.5871 120.117 77.6526 125.183 84.0236 125.548C84.9636 136.201 89.6635 146.228 97.2878 153.8C101.518 158.134 106.635 161.477 112.223 163.722V167.378H95.93C84.4936 167.482 73.9449 173.383 67.8872 183.044H56.3985V182.731L63.2395 178.24C63.5006 178.083 63.7095 177.874 63.9184 177.665C69.5061 172.077 72.6393 164.505 72.5871 156.62V124.086C72.5871 117.82 68.3572 112.388 62.2995 110.822L46.8942 106.905C46.842 106.905 46.7898 106.905 46.7376 106.853C45.6409 106.592 44.5443 106.435 43.3954 106.383C41.6721 106.279 40.001 106.435 38.3299 106.905L23.1858 110.822C17.1803 112.388 12.9504 117.82 13.0026 124.086V130.144C13.0026 130.457 12.8459 130.77 12.8459 131.084C12.8459 131.501 13.0026 131.867 13.0026 132.233V156.672C13.0026 168.109 19.3736 178.396 29.4001 183.096H21.9847C10.026 183.096 0.521699 193.07 0.521699 204.977V215.578C0.469478 217.719 2.14056 219.547 4.28163 219.599C4.33386 219.599 4.4383 219.599 4.49052 219.599H63.1351V230.774C63.1351 233.072 65.1717 234.743 67.4694 234.743H193.479C195.777 234.743 197.814 233.124 197.814 230.774V219.651H256.511C258.652 219.703 260.427 217.98 260.479 215.839C260.479 215.787 260.479 215.682 260.479 215.63V201.426C260.532 188.736 251.027 178.396 239.173 178.396ZM246.954 149.413V131.084C246.954 131.24 247.215 131.397 247.32 131.554C252.751 139.909 253.064 150.667 248.103 159.335C246.693 161.842 244.865 164.088 242.724 165.968C245.544 160.902 247.006 155.21 246.954 149.413ZM84.0236 117.141C82.0392 116.827 80.577 115.104 80.6292 113.12C80.6292 112.023 81.0992 110.979 81.8825 110.195C82.4569 109.569 83.188 109.203 84.0236 109.099V117.141ZM47.6253 118.864H46.9465V118.342C46.9465 117.088 46.372 115.94 45.432 115.156L60.2107 118.916C62.5606 119.543 64.1795 121.632 64.1795 124.086V137.455C59.2185 139.544 53.5786 139.074 48.9831 136.254C47.1553 135.105 45.4843 133.747 44.0221 132.18C45.7454 131.606 46.9465 130.039 46.9465 128.212V127.219H47.6253C49.9231 127.219 51.803 125.339 51.803 123.042C51.803 120.744 49.9231 118.864 47.6253 118.864ZM21.358 131.084V124.086C21.3058 121.684 22.9246 119.543 25.2746 118.968L40.1055 115.156C39.1655 115.94 38.591 117.141 38.591 118.342V118.864H37.8077C35.51 118.864 33.63 120.744 33.63 123.042C33.63 125.339 35.51 127.219 37.8077 127.219H38.591V127.95C38.0688 127.898 37.39 127.898 36.7111 127.898C31.2278 128.003 25.9013 129.674 21.358 132.755V131.084ZM21.358 156.672V143.199C23.4469 141.058 29.7656 136.358 36.5022 136.254C38.6955 138.969 41.3588 141.371 44.3354 143.251C48.3042 145.758 52.8997 147.116 57.5996 147.168C59.7929 147.168 62.0384 146.855 64.1795 146.28V156.724C64.1795 162.26 62.0384 167.586 58.174 171.555L49.8186 176.934C45.3276 178.501 40.471 178.553 35.98 177.038C27.2068 174.114 21.358 165.915 21.358 156.672ZM38.5388 211.296H8.82489V204.977C8.82489 197.614 14.6215 191.452 21.9324 191.452H32.7423L38.5388 197.457V211.296ZM39.1655 186.282C41.9332 186.595 44.7009 186.543 47.4164 186.125L43.1865 190.355L39.1655 186.282ZM63.1351 199.911V211.296H46.9465V198.501L53.683 191.452H64.3884C63.6573 194.585 63.1351 197.091 63.1351 199.911ZM165.541 198.606C167.055 198.606 168.465 199.18 169.51 200.277C170.554 201.321 171.181 202.784 171.181 204.246C171.181 205.76 170.554 207.222 169.51 208.267C168.465 209.311 167.055 209.938 165.541 209.886C162.408 209.886 159.901 207.327 159.901 204.246C159.901 201.165 162.408 198.658 165.541 198.606ZM177.5 110.195C178.283 110.979 178.701 112.023 178.701 113.12C178.805 115.104 177.395 116.827 175.411 117.141V109.046C176.194 109.307 176.873 109.673 177.5 110.195ZM114.782 61.4205C114.782 61.3682 114.834 61.3682 114.834 61.316C115.304 60.3238 115.931 59.3838 116.714 58.6005C118.594 56.7205 121.153 55.6761 123.764 55.6761H152.904C164.758 55.6761 174.68 64.5537 176.664 75.5202H123.816C123.764 75.5202 123.712 75.5724 123.66 75.5724C123.503 75.5724 123.346 75.5724 123.242 75.5724C117.967 75.3113 113.894 70.9247 113.894 65.7026C113.79 64.1882 114.155 62.726 114.782 61.4205ZM95.5645 71.8125C98.0189 67.8959 101.361 65.4415 105.539 64.3449C105.487 64.8148 105.487 65.2326 105.487 65.7026C105.539 72.648 109.455 78.9668 115.67 82.0479C106.897 90.8733 97.0789 92.4922 92.379 92.6488V80.1679C92.379 79.2279 93.2668 75.468 95.5645 71.8125ZM103.241 147.899C96.2434 140.849 92.3268 131.345 92.379 121.423V100.952C99.1678 100.743 113.372 98.4976 124.965 83.8756H167.055V121.423C167.003 137.037 157.342 150.98 142.72 156.516C129.038 161.633 113.581 158.291 103.241 147.899ZM125.278 226.44H71.4905V199.911C71.4905 196.308 72.326 192.757 73.8927 189.467C77.6004 181.843 84.9636 176.673 93.4234 175.785V178.501C90.5513 179.336 87.9402 180.798 85.8513 182.887C82.6658 186.021 80.8903 190.355 80.8903 194.846V212.706C80.8903 215.056 82.7181 216.936 85.068 217.04H90.1857C92.4834 217.04 94.3634 215.16 94.3634 212.862C94.3634 210.565 92.4834 208.685 90.1857 208.685H89.2457V194.898C89.2457 192.6 90.1335 190.407 91.7523 188.788C93.2668 187.169 95.4078 186.282 97.6534 186.229H97.81C102.562 186.282 106.427 190.094 106.479 194.898V208.685H104.181C101.883 208.685 100.003 210.565 100.003 212.862C100.003 215.16 101.883 217.04 104.181 217.04H110.552C112.902 216.988 114.782 215.108 114.834 212.706V194.846C114.834 186.908 109.09 180.276 101.779 178.448V175.785H114.573L125.278 186.543V226.44ZM120.579 169.78V166.281C127.158 167.586 133.895 167.482 140.423 165.915V169.78L130.553 179.754L120.579 169.78ZM189.511 226.44H133.634V188.318L146.324 175.785H161.311V190.929C155.462 192.757 151.494 198.188 151.494 204.298C151.494 208.006 152.956 211.557 155.567 214.22C158.178 216.883 161.781 218.346 165.489 218.346C169.197 218.346 172.8 216.883 175.411 214.22C178.022 211.609 179.484 208.058 179.536 204.298C179.536 200.59 178.074 197.039 175.411 194.428C173.792 192.809 171.808 191.608 169.667 190.929V176.151C175.62 177.352 180.894 180.642 184.602 185.446C187.787 189.624 189.511 194.689 189.511 199.964V226.44ZM196.299 121.841V115.47C196.299 112.702 197.866 110.247 200.268 109.621L215.36 105.391C216.248 105.13 217.188 105.077 218.128 105.13C218.598 105.182 219.068 105.234 219.486 105.391L234.63 109.569C237.032 110.247 238.599 112.65 238.599 115.47V130.875C226.588 132.859 219.747 126.488 217.553 124.086C219.903 124.086 221.783 122.258 221.888 119.908V118.864H222.358C224.656 118.864 226.536 116.984 226.536 114.686C226.536 112.388 224.656 110.509 222.358 110.509H221.888V109.307C221.888 107.166 220.269 105.391 218.128 105.13C217.971 105.13 217.867 105.13 217.71 105.13C215.412 105.13 213.532 107.01 213.532 109.307V110.509H212.592C210.295 110.509 208.415 112.388 208.415 114.686C208.415 116.984 210.295 118.864 212.592 118.864H213.532V119.908C213.48 120.431 213.585 121.005 213.741 121.475C213.689 121.475 213.48 121.475 213.428 121.475H213.376C212.018 121.475 210.765 122.154 210.034 123.251C205.229 130.144 199.433 131.606 196.299 131.763V121.841ZM186.691 159.283C181.73 150.615 181.991 139.909 187.422 131.554C187.578 131.293 187.944 131.084 187.944 130.875V149.413C187.892 155.314 189.406 161.059 192.331 166.176C190.033 164.244 188.153 161.894 186.691 159.283ZM196.299 149.413V140.118C200.999 140.014 207.579 138.499 213.689 131.971C219.329 136.933 226.588 139.648 234.108 139.648C235.622 139.648 237.084 139.544 238.599 139.335V149.413C238.703 155.419 236.562 161.215 232.593 165.759L224.708 171.294L217.031 172.809C214.89 172.756 212.801 172.391 210.817 171.66C210.66 171.607 210.504 171.555 210.399 171.503C210.243 171.451 210.138 171.346 209.981 171.294C201.783 167.848 196.299 159.074 196.299 149.413ZM197.866 211.296V199.911C197.814 195.368 196.822 190.877 194.942 186.752H207.631C209.355 188.266 211.339 189.363 213.532 189.937V211.296H197.866ZM213.689 180.903C214.942 181.06 216.248 181.164 217.501 181.164C217.762 181.164 218.024 181.112 218.285 181.06L222.41 180.224V180.746C220.843 181.843 219.381 182.365 217.71 182.313C216.248 182.261 214.838 181.791 213.689 180.903ZM221.888 211.296V190.251C224.238 189.519 226.431 188.318 228.311 186.752H239.173C246.432 186.752 252.176 193.332 252.176 201.426V211.296H221.888Z" fill="#047D00"/>
<path d="M210.921 140.275C208.623 140.275 206.743 142.155 206.743 144.452V145.653C206.743 145.862 206.639 146.019 206.482 146.123C206.326 146.019 206.221 145.81 206.221 145.653V144.452C206.221 142.155 204.341 140.275 202.043 140.275C199.746 140.275 197.866 142.155 197.866 144.452V145.653C197.866 150.562 201.782 154.531 206.482 154.531C211.287 154.427 215.151 150.458 215.099 145.653V144.452C215.099 142.155 213.219 140.275 210.921 140.275Z" fill="#047D00"/>
<path d="M232.854 140.275C230.556 140.275 228.676 142.155 228.676 144.452V145.653C228.781 145.81 228.729 145.967 228.572 146.071C228.415 146.176 228.259 146.123 228.154 145.967C228.102 145.862 228.102 145.758 228.154 145.653V144.452C228.154 142.155 226.274 140.275 223.977 140.275C221.679 140.275 219.799 142.155 219.799 144.452V145.653C219.799 150.51 223.715 154.479 228.415 154.479C233.115 154.479 237.032 150.51 237.032 145.601V144.452C237.032 142.155 235.152 140.275 232.854 140.275Z" fill="#047D00"/>
<path d="M35.9799 147.325C33.6822 147.325 31.8022 149.205 31.8022 151.502C31.8022 149.205 29.9222 147.325 27.6245 147.325C25.3267 147.325 23.4468 149.205 23.4468 151.502V152.599C23.4468 157.194 27.2067 160.954 31.8022 160.954C36.3977 160.954 40.1576 157.247 40.1576 152.599V151.502C40.1576 149.205 38.2776 147.325 35.9799 147.325ZM31.8022 152.808C31.6977 152.808 31.8022 152.703 31.8022 152.599C31.8022 152.703 31.9066 152.808 31.8022 152.808Z" fill="#047D00"/>
<path d="M57.9128 147.325C55.615 147.325 53.735 149.205 53.735 151.502V152.599C53.735 152.703 53.5784 152.808 53.4739 152.808C53.3695 152.808 53.2128 152.703 53.2128 152.599V151.502C53.2128 149.205 51.3329 147.325 49.0351 147.325C46.7374 147.325 44.8574 149.205 44.8574 151.502V152.599C44.9096 157.351 48.7218 161.163 53.4739 161.163C58.2261 161.163 62.0905 157.351 62.0905 152.599V151.502C62.0905 149.205 60.2105 147.325 57.9128 147.325Z" fill="#047D00"/>
<path d="M145.593 194.063H142.041C139.744 194.063 137.864 195.943 137.864 198.24C137.864 200.538 139.744 202.418 142.041 202.418H145.593C147.89 202.418 149.77 200.538 149.77 198.24C149.77 195.943 147.89 194.063 145.593 194.063Z" fill="#047D00"/>
<path d="M145.593 204.507H142.041C139.744 204.507 137.864 206.387 137.864 208.685C137.864 210.982 139.744 212.862 142.041 212.862H145.593C147.89 212.862 149.77 210.982 149.77 208.685C149.77 206.387 147.89 204.507 145.593 204.507Z" fill="#047D00"/>
<path d="M119.012 102.675C116.714 102.675 114.834 104.555 114.834 106.853V108.629C114.834 110.248 113.529 111.553 111.91 111.553C111.179 111.553 110.447 111.24 109.925 110.718C109.403 110.143 109.09 109.412 109.09 108.629V106.853C109.09 104.555 107.21 102.675 104.912 102.675C102.614 102.675 100.734 104.555 100.734 106.853V108.629C100.682 114.791 105.591 119.856 111.753 119.908C111.805 119.908 111.857 119.908 111.91 119.908C118.176 119.908 123.189 114.843 123.189 108.629V106.853C123.189 104.555 121.309 102.675 119.012 102.675Z" fill="#047D00"/>
<path d="M154.47 102.675C152.172 102.675 150.292 104.555 150.292 106.853V108.629C150.292 110.248 148.935 111.553 147.316 111.553C146.532 111.553 145.854 111.24 145.279 110.717C144.757 110.143 144.496 109.412 144.496 108.629V106.853C144.496 104.555 142.616 102.675 140.318 102.675C138.02 102.675 136.14 104.555 136.14 106.853V108.629C136.088 111.605 137.237 114.477 139.326 116.566C139.43 116.619 139.378 116.619 139.378 116.619C143.817 121.005 151.023 120.953 155.41 116.514C157.499 114.425 158.648 111.553 158.648 108.629V106.853C158.648 104.555 156.768 102.675 154.47 102.675Z" fill="#047D00"/>
<path d="M72.9524 47.8429C72.9002 47.8429 72.7958 47.8429 72.7435 47.8429H55.8238V30.9232C55.8238 28.7299 54.1005 27.0066 51.9072 26.9543C51.855 26.9543 51.7506 26.9543 51.6984 26.9543H38.5908C36.2931 26.9543 34.4131 28.5732 34.4131 30.9232V47.8429H17.5978C15.4045 47.7906 13.5768 49.5662 13.5246 51.7595C13.5246 51.8117 13.5246 51.8639 13.5246 51.9161V65.0237C13.4723 67.3214 15.2479 69.2014 17.5978 69.2536H34.4131V86.0166C34.4131 88.3144 36.2931 90.1421 38.5386 90.1421H38.5908H51.6984C53.9439 90.1943 55.7716 88.3666 55.8238 86.1211C55.8238 86.0689 55.8238 86.0689 55.8238 86.0166V69.2536H72.7435C74.9891 69.2014 76.7646 67.3736 76.7124 65.1281C76.7124 65.0759 76.7124 65.0759 76.7124 65.0237V51.9161C76.7646 49.7751 75.0935 47.9473 72.9524 47.8429ZM68.357 60.8982H51.6984C49.4006 60.8982 47.4684 62.7259 47.4684 65.0237V81.7867H42.7685V65.0237C42.7685 62.7259 40.8885 60.8982 38.643 60.8982C38.643 60.8982 38.643 60.8982 38.5908 60.8982H21.88V56.1983H38.5908C40.9408 56.1461 42.7685 54.2139 42.7685 51.9161V35.3098H47.4684V51.9161C47.5206 54.2661 49.4006 56.1461 51.6984 56.1983H68.357V60.8982Z" fill="#047D00"/>
</g>
<defs>
<clipPath id="clip0">
<rect width="259.959" height="259.959" fill="white" transform="translate(0.520508 0.869385)"/>
</clipPath>
</defs>
</svg>
