<svg width="52" height="52" viewBox="0 0 52 52" fill="none" xmlns="http://www.w3.org/2000/svg">
<path d="M49.5625 36.0887V7.16016C49.5625 5.45208 48.1728 4.0625 46.4648 4.0625H39.1016V3.04688C39.1016 1.36683 37.7347 0 36.0547 0C34.3746 0 33.0078 1.36683 33.0078 3.04688V4.0625H16.5547V3.04688C16.5547 1.36683 15.1879 0 13.5078 0C11.8278 0 10.4609 1.36683 10.4609 3.04688V4.0625H3.09766C1.38968 4.0625 0 5.45208 0 7.16016V44.8398C0 46.5479 1.38968 47.9375 3.09766 47.9375H16.9407C17.5016 47.9375 17.9564 47.4828 17.9564 46.9219C17.9564 46.3609 17.5016 45.9062 16.9407 45.9062H3.09766C2.50961 45.9062 2.03125 45.4279 2.03125 44.8398V7.16016C2.03125 6.57211 2.50961 6.09375 3.09766 6.09375H10.4609V7.10938C10.4609 8.78942 11.8278 10.1562 13.5078 10.1562C15.1879 10.1562 16.5547 8.78942 16.5547 7.10938V6.09375H33.0078V7.10938C33.0078 8.78942 34.3746 10.1562 36.0547 10.1562C37.7347 10.1562 39.1016 8.78942 39.1016 7.10938V6.09375H46.4648C47.0529 6.09375 47.5312 6.57211 47.5312 7.16016V12.1875H9.14062C8.5798 12.1875 8.125 12.6422 8.125 13.2031C8.125 13.7641 8.5798 14.2188 9.14062 14.2188H47.5312V34.3725C46.6665 33.8271 45.7088 33.4168 44.6875 33.1709V18.0781C44.6875 17.5172 44.2327 17.0625 43.6719 17.0625H5.89062C5.3298 17.0625 4.875 17.5172 4.875 18.0781V42.0469C4.875 42.6078 5.3298 43.0625 5.89062 43.0625H32.9263C32.9893 44.0593 33.2058 45.015 33.5528 45.9062H25.0656C24.5048 45.9062 24.05 46.3609 24.05 46.9219C24.05 47.4828 24.5048 47.9375 25.0656 47.9375H34.6433C36.3726 50.3927 39.2285 52 42.4531 52C47.7173 52 52 47.7173 52 42.4531C52 40.0101 51.0772 37.779 49.5625 36.0887ZM14.5234 7.10938C14.5234 7.66939 14.0678 8.125 13.5078 8.125C12.9478 8.125 12.4922 7.66939 12.4922 7.10938V3.04688C12.4922 2.48686 12.9478 2.03125 13.5078 2.03125C14.0678 2.03125 14.5234 2.48686 14.5234 3.04688V7.10938ZM37.0703 7.10938C37.0703 7.66939 36.6147 8.125 36.0547 8.125C35.4947 8.125 35.0391 7.66939 35.0391 7.10938V3.04688C35.0391 2.48686 35.4947 2.03125 36.0547 2.03125C36.6147 2.03125 37.0703 2.48686 37.0703 3.04688V7.10938ZM42.4531 32.9062C41.981 32.9062 41.5168 32.9413 41.0627 33.0078H37.1313V27.1172H42.6562V32.9088C42.5887 32.9074 42.5211 32.9062 42.4531 32.9062ZM33.0122 41.0312H29.575V35.0391H35.1V36.371C34.017 37.678 33.2752 39.2774 33.0122 41.0312ZM6.90625 27.1172H12.4313V33.0078H6.90625V27.1172ZM14.4625 27.1172H19.9875V33.0078H14.4625V27.1172ZM29.575 27.1172H35.1V33.0078H29.575V27.1172ZM27.5438 33.0078H22.0188V27.1172H27.5438V33.0078ZM29.575 25.0859V19.0938H35.1V25.0859H29.575ZM27.5438 25.0859H22.0188V19.0938H27.5438V25.0859ZM19.9875 25.0859H14.4625V19.0938H19.9875V25.0859ZM19.9875 35.0391V41.0312H14.4625V35.0391H19.9875ZM22.0188 35.0391H27.5438V41.0312H22.0188V35.0391ZM42.6562 25.0859H37.1313V19.0938H42.6562V25.0859ZM12.4313 19.0938V25.0859H6.90625V19.0938H12.4313ZM6.90625 35.0391H12.4313V41.0312H6.90625V35.0391ZM42.4531 49.9688C38.309 49.9688 34.9375 46.5973 34.9375 42.4531C34.9375 38.309 38.309 34.9375 42.4531 34.9375C46.5973 34.9375 49.9688 38.309 49.9688 42.4531C49.9688 46.5973 46.5973 49.9688 42.4531 49.9688Z" fill="#FFCB21"/>
<path d="M45.3912 39.9916L42.25 43.1328L40.8523 41.7351C40.4558 41.3385 39.8129 41.3385 39.4159 41.7351C39.0193 42.1317 39.0193 42.7748 39.4159 43.1714L41.5317 45.2872C41.7222 45.4777 41.9805 45.5847 42.2499 45.5847C42.5192 45.5847 42.7775 45.4777 42.968 45.2872L46.8274 41.4279C47.224 41.0313 47.224 40.3882 46.8274 39.9915C46.4308 39.595 45.7879 39.595 45.3912 39.9916Z" fill="#FFCB21"/>
<path d="M21.0032 45.9062C20.7361 45.9062 20.474 46.0149 20.2851 46.2038C20.0963 46.3927 19.9875 46.6548 19.9875 46.9219C19.9875 47.189 20.0962 47.451 20.2851 47.6399C20.474 47.8288 20.7361 47.9375 21.0032 47.9375C21.2703 47.9375 21.5323 47.8288 21.7212 47.6399C21.91 47.451 22.0188 47.189 22.0188 46.9219C22.0188 46.6548 21.9101 46.3927 21.7212 46.2038C21.5323 46.0149 21.2703 45.9062 21.0032 45.9062Z" fill="#FFCB21"/>
<path d="M5.79607 13.9212C5.98508 13.7323 6.09375 13.4702 6.09375 13.2031C6.09375 12.936 5.98508 12.674 5.79607 12.4851C5.60727 12.2962 5.34523 12.1875 5.07812 12.1875C4.8099 12.1875 4.54898 12.2962 4.36008 12.4851C4.17117 12.674 4.0625 12.936 4.0625 13.2031C4.0625 13.4702 4.17107 13.7323 4.36008 13.9212C4.54909 14.1101 4.8099 14.2188 5.07812 14.2188C5.34523 14.2188 5.60727 14.1101 5.79607 13.9212Z" fill="#FFCB21"/>
</svg>
