<svg width="60" height="60" viewBox="0 0 60 60" fill="none" xmlns="http://www.w3.org/2000/svg">
<g clip-path="url(#clip0)">
<path d="M23.6064 25.6809C24.5773 25.6809 25.3643 24.8939 25.3643 23.9231C25.3643 22.9523 24.5773 22.1653 23.6064 22.1653C22.6356 22.1653 21.8486 22.9523 21.8486 23.9231C21.8486 24.8939 22.6356 25.6809 23.6064 25.6809Z" fill="#3C0786"/>
<path d="M36.3936 25.6809C37.3644 25.6809 38.1514 24.8939 38.1514 23.9231C38.1514 22.9523 37.3644 22.1653 36.3936 22.1653C35.4227 22.1653 34.6357 22.9523 34.6357 23.9231C34.6357 24.8939 35.4227 25.6809 36.3936 25.6809Z" fill="#3C0786"/>
<path d="M25.1007 32.3191C24.502 33.0833 24.6362 34.1882 25.4004 34.787C26.7545 35.848 28.3773 36.3784 30.0001 36.3784C31.6229 36.3784 33.2457 35.848 34.5998 34.787C35.364 34.1883 35.4982 33.0834 34.8995 32.3191C34.3006 31.555 33.1957 31.4209 32.4316 32.0195C30.9999 33.1412 29.0002 33.1412 27.5686 32.0195C26.8045 31.421 25.6995 31.5551 25.1007 32.3191Z" fill="#3C0786"/>
<path d="M30 10.1279C30.9708 10.1279 31.7578 9.34093 31.7578 8.37012C31.7578 7.39931 30.9708 6.6123 30 6.6123C29.0292 6.6123 28.2422 7.39931 28.2422 8.37012C28.2422 9.34093 29.0292 10.1279 30 10.1279Z" fill="#3C0786"/>
<path d="M52.773 57.7172L50.4926 50.4281C49.1625 46.1766 45.1699 42.8145 42.0562 40.7426L40.0148 39.3855C40.0137 39.3844 40.0125 39.3844 40.0113 39.3832C42.8707 36.8438 44.7809 33.2402 45.1254 29.1961H46.9406C49.8539 29.1961 52.2141 26.8371 52.2141 23.9227C52.2141 21.0152 49.848 18.6492 46.9406 18.6492H45.1828V15.7348C45.1828 13.2984 44.4047 10.9875 42.934 9.05273C41.6988 7.42969 40.0137 6.16758 38.1211 5.43281C36.7769 2.19258 33.5637 0 30 0C26.4363 0 23.223 2.19258 21.8789 5.43281C19.9863 6.16758 18.3012 7.42969 17.066 9.05273C15.5953 10.9875 14.8172 13.2984 14.8172 15.7348V18.6492H13.0594C10.1519 18.6492 7.78593 21.0152 7.78593 23.9227C7.78593 26.8371 10.1449 29.1961 13.0594 29.1961H14.8617C15.1617 33.1312 16.9582 36.7535 19.9559 39.4055C19.1976 39.9094 19.1191 39.9621 17.9437 40.7426C14.8301 42.8145 10.8375 46.1766 9.50741 50.4281L7.22694 57.7172C6.93632 58.6441 7.45312 59.6297 8.3789 59.9203C9.31417 60.2091 10.2934 59.6877 10.582 58.7672L12.8625 51.4781C13.7191 48.7395 16.2926 46.3266 18.3984 44.7305V49.7555C16.3523 50.4809 14.8828 52.4355 14.8828 54.7266C14.8828 57.634 17.2488 60 20.1562 60C23.0637 60 25.4297 57.634 25.4297 54.7266C25.4297 52.4355 23.9602 50.4809 21.9141 49.7555V42.3246L22.4332 41.9789L28.2422 51.3223V58.2422C28.2422 59.2125 29.0297 60 30 60C30.9703 60 31.7578 59.2125 31.7578 58.2422V51.3223L37.2727 42.4523V54.7266C37.2727 55.6969 38.0602 56.4844 39.0305 56.4844C40.0008 56.4844 40.7883 55.6969 40.7883 54.7266V44.1363C42.9891 45.6879 46.166 48.3738 47.1375 51.4781L49.418 58.7672C49.7068 59.6899 50.6873 60.2086 51.6211 59.9203C52.5469 59.6297 53.0637 58.6441 52.773 57.7172ZM45.1828 22.1648H46.9406C47.9098 22.1648 48.6984 22.9535 48.6984 23.9227C48.6984 24.8941 47.9109 25.6805 46.9406 25.6805H45.1828V22.1648ZM14.8172 25.6805H13.0594C12.0891 25.6805 11.3016 24.8941 11.3016 23.9227C11.3016 22.9535 12.0902 22.1648 13.0594 22.1648H14.8172V25.6805ZM38.734 9.77461C40.1027 10.8375 41.0824 12.3574 41.475 14.0637H37.0324C37.9547 12.8344 38.557 11.3484 38.734 9.77461ZM30 3.51562C32.8465 3.51562 35.2734 5.82891 35.2734 8.78906C35.2734 11.6895 32.9262 14.0637 30 14.0637C27.0738 14.0637 24.7266 11.6906 24.7266 8.78906C24.7266 5.83828 27.143 3.51562 30 3.51562ZM21.266 9.77461C21.4359 11.2887 22.0066 12.7816 22.9676 14.0637H18.525C18.9176 12.3574 19.8973 10.8375 21.266 9.77461ZM21.9562 54.7324C21.9562 55.7262 21.15 56.5324 20.1562 56.5324C19.1625 56.5324 18.3562 55.7262 18.3562 54.7324C18.3562 53.7387 19.1625 52.9336 20.1562 52.9336C21.15 52.9336 21.9562 53.7387 21.9562 54.7324ZM30 47.4914L27.1711 42.941C28.9881 43.2827 30.9226 43.3018 32.8336 42.934L30 47.4914ZM30.041 39.6879H29.9988C23.5547 39.6879 18.3328 34.4719 18.3328 28.0207V17.5793H41.6672V27.8754C41.6672 34.3664 36.4512 39.6656 30.041 39.6879Z" fill="#3C0786"/>
</g>
<defs>
<clipPath id="clip0">
<rect width="60" height="60" fill="white"/>
</clipPath>
</defs>
</svg>
