<svg width="58" height="58" viewBox="0 0 58 58" fill="none" xmlns="http://www.w3.org/2000/svg">
<path d="M53.9219 6.34375H4.07812C3.23718 6.34468 2.43094 6.67916 1.8363 7.2738C1.24166 7.86844 0.90718 8.67468 0.90625 9.51562V48.4844C0.90718 49.3253 1.24166 50.1316 1.8363 50.7262C2.43094 51.3208 3.23718 51.6553 4.07812 51.6562H53.9219C54.7628 51.6553 55.5691 51.3208 56.1637 50.7262C56.7583 50.1316 57.0928 49.3253 57.0938 48.4844V9.51562C57.0928 8.67468 56.7583 7.86844 56.1637 7.2738C55.5691 6.67916 54.7628 6.34468 53.9219 6.34375ZM55.2812 48.4844C55.2809 48.8448 55.1376 49.1904 54.8828 49.4453C54.6279 49.7001 54.2823 49.8434 53.9219 49.8438H4.07812C3.71769 49.8434 3.3721 49.7001 3.11723 49.4453C2.86237 49.1904 2.71905 48.8448 2.71875 48.4844V44.4062H55.2812V48.4844ZM55.2812 42.5938H2.71875V13.5938H55.2812V42.5938ZM55.2812 11.7812H2.71875V9.51562C2.71905 9.15519 2.86237 8.8096 3.11723 8.55473C3.3721 8.29987 3.71769 8.15655 4.07812 8.15625H53.9219C54.2823 8.15655 54.6279 8.29987 54.8828 8.55473C55.1376 8.8096 55.2809 9.15519 55.2812 9.51562V11.7812Z" fill="#FFCB21"/>
<path d="M4.53125 10.875H5.4375C5.67785 10.875 5.90836 10.7795 6.07832 10.6096C6.24827 10.4396 6.34375 10.2091 6.34375 9.96875C6.34375 9.7284 6.24827 9.49789 6.07832 9.32793C5.90836 9.15798 5.67785 9.0625 5.4375 9.0625H4.53125C4.2909 9.0625 4.06039 9.15798 3.89043 9.32793C3.72048 9.49789 3.625 9.7284 3.625 9.96875C3.625 10.2091 3.72048 10.4396 3.89043 10.6096C4.06039 10.7795 4.2909 10.875 4.53125 10.875Z" fill="#FFCB21"/>
<path d="M8.15625 10.875H9.0625C9.30285 10.875 9.53336 10.7795 9.70332 10.6096C9.87327 10.4396 9.96875 10.2091 9.96875 9.96875C9.96875 9.7284 9.87327 9.49789 9.70332 9.32793C9.53336 9.15798 9.30285 9.0625 9.0625 9.0625H8.15625C7.9159 9.0625 7.68539 9.15798 7.51543 9.32793C7.34548 9.49789 7.25 9.7284 7.25 9.96875C7.25 10.2091 7.34548 10.4396 7.51543 10.6096C7.68539 10.7795 7.9159 10.875 8.15625 10.875Z" fill="#FFCB21"/>
<path d="M11.7812 10.875H12.6875C12.9279 10.875 13.1584 10.7795 13.3283 10.6096C13.4983 10.4396 13.5938 10.2091 13.5938 9.96875C13.5938 9.7284 13.4983 9.49789 13.3283 9.32793C13.1584 9.15798 12.9279 9.0625 12.6875 9.0625H11.7812C11.5409 9.0625 11.3104 9.15798 11.1404 9.32793C10.9705 9.49789 10.875 9.7284 10.875 9.96875C10.875 10.2091 10.9705 10.4396 11.1404 10.6096C11.3104 10.7795 11.5409 10.875 11.7812 10.875Z" fill="#FFCB21"/>
<path d="M29 19.0312C27.0284 19.0312 25.101 19.6159 23.4617 20.7113C21.8223 21.8067 20.5446 23.3636 19.7901 25.1851C19.0356 27.0067 18.8382 29.0111 19.2228 30.9448C19.6074 32.8786 20.5569 34.6548 21.951 36.049C23.3452 37.4431 25.1214 38.3926 27.0552 38.7772C28.9889 39.1618 30.9933 38.9644 32.8149 38.2099C34.6364 37.4554 36.1933 36.1777 37.2887 34.5383C38.3841 32.899 38.9688 30.9716 38.9688 29C38.9658 26.357 37.9145 23.8232 36.0457 21.9543C34.1768 20.0855 31.643 19.0342 29 19.0312ZM29 37.1562C27.3868 37.1562 25.8099 36.6779 24.4686 35.7817C23.1273 34.8855 22.0819 33.6116 21.4646 32.1213C20.8473 30.6309 20.6858 28.991 21.0005 27.4088C21.3152 25.8266 22.092 24.3733 23.2327 23.2327C24.3733 22.092 25.8266 21.3152 27.4088 21.0005C28.991 20.6858 30.6309 20.8473 32.1213 21.4646C33.6116 22.0819 34.8855 23.1273 35.7817 24.4686C36.6779 25.8099 37.1563 27.3868 37.1563 29C37.1538 31.1624 36.2936 33.2355 34.7646 34.7646C33.2355 36.2936 31.1624 37.1538 29 37.1562Z" fill="#FFCB21"/>
<path d="M33.128 28.2455L27.6905 24.6205C27.5539 24.5298 27.3953 24.4778 27.2315 24.47C27.0677 24.4622 26.9049 24.499 26.7603 24.5764C26.6157 24.6538 26.4949 24.7689 26.4105 24.9095C26.3262 25.0501 26.2815 25.211 26.2812 25.3749V32.6249C26.2814 32.789 26.326 32.9499 26.4103 33.0906C26.4946 33.2312 26.6155 33.3464 26.7601 33.4238C26.9047 33.5012 27.0676 33.538 27.2314 33.5302C27.3953 33.5223 27.5539 33.4702 27.6905 33.3794L33.128 29.7544C33.252 29.6715 33.3537 29.5593 33.4241 29.4277C33.4944 29.2961 33.5312 29.1492 33.5312 28.9999C33.5312 28.8507 33.4944 28.7038 33.4241 28.5722C33.3537 28.4406 33.252 28.3284 33.128 28.2455ZM28.0938 30.9314V27.0685L30.9915 28.9999L28.0938 30.9314Z" fill="#FFCB21"/>
<path d="M49.8438 46.2188H13.5938C13.5938 45.9784 13.4983 45.7479 13.3283 45.5779C13.1584 45.408 12.9279 45.3125 12.6875 45.3125C12.4471 45.3125 12.2166 45.408 12.0467 45.5779C11.8767 45.7479 11.7812 45.9784 11.7812 46.2188H8.15625C7.9159 46.2188 7.68539 46.3142 7.51543 46.4842C7.34548 46.6541 7.25 46.8846 7.25 47.125C7.25 47.3654 7.34548 47.5959 7.51543 47.7658C7.68539 47.9358 7.9159 48.0312 8.15625 48.0312H11.7812C11.7812 48.2716 11.8767 48.5021 12.0467 48.6721C12.2166 48.842 12.4471 48.9375 12.6875 48.9375C12.9279 48.9375 13.1584 48.842 13.3283 48.6721C13.4983 48.5021 13.5938 48.2716 13.5938 48.0312H49.8438C50.0841 48.0312 50.3146 47.9358 50.4846 47.7658C50.6545 47.5959 50.75 47.3654 50.75 47.125C50.75 46.8846 50.6545 46.6541 50.4846 46.4842C50.3146 46.3142 50.0841 46.2188 49.8438 46.2188Z" fill="#FFCB21"/>
</svg>
