<svg width="65" height="65" viewBox="0 0 65 65" fill="none" xmlns="http://www.w3.org/2000/svg">
<path d="M62.3649 36.3121C62.132 36.3121 61.9086 36.2195 61.7438 36.0548C61.5791 35.8901 61.4866 35.6666 61.4866 35.4337V29.9614C61.4866 29.7284 61.5791 29.505 61.7438 29.3403C61.9086 29.1756 62.132 29.083 62.3649 29.083C62.5979 29.083 62.8213 29.1756 62.9861 29.3403C63.1508 29.505 63.2433 29.7284 63.2433 29.9614V35.4337C63.2433 35.6666 63.1508 35.8901 62.9861 36.0548C62.8213 36.2195 62.5979 36.3121 62.3649 36.3121Z" fill="#FFCB21"/>
<path d="M62.3649 56.5325H2.63521C2.40225 56.5325 2.17883 56.4399 2.01411 56.2752C1.84938 56.1105 1.75684 55.887 1.75684 55.6541V18.3933C1.75684 18.1603 1.84938 17.9369 2.01411 17.7722C2.17883 17.6074 2.40225 17.5149 2.63521 17.5149H7.21157C7.44453 17.5149 7.66794 17.6074 7.83267 17.7722C7.9974 17.9369 8.08994 18.1603 8.08994 18.3933C8.08994 18.6262 7.9974 18.8496 7.83267 19.0144C7.66794 19.1791 7.44453 19.2716 7.21157 19.2716H3.51359V54.7757H61.4866V49.6987C61.4866 49.4657 61.5791 49.2423 61.7438 49.0776C61.9086 48.9128 62.132 48.8203 62.3649 48.8203C62.5979 48.8203 62.8213 48.9128 62.986 49.0776C63.1508 49.2423 63.2433 49.4657 63.2433 49.6987V55.6541C63.2433 55.887 63.1508 56.1105 62.986 56.2752C62.8213 56.4399 62.5979 56.5325 62.3649 56.5325Z" fill="#FFCB21"/>
<path d="M62.3649 46.1851C62.132 46.1851 61.9086 46.0926 61.7438 45.9278C61.5791 45.7631 61.4866 45.5397 61.4866 45.3067V39.8256C61.4866 39.5927 61.5791 39.3693 61.7438 39.2045C61.9086 39.0398 62.132 38.9473 62.3649 38.9473C62.5979 38.9473 62.8213 39.0398 62.9861 39.2045C63.1508 39.3693 63.2433 39.5927 63.2433 39.8256V45.3067C63.2433 45.5397 63.1508 45.7631 62.9861 45.9278C62.8213 46.0926 62.5979 46.1851 62.3649 46.1851Z" fill="#FFCB21"/>
<path d="M62.3649 26.448C62.1319 26.448 61.9085 26.3555 61.7438 26.1907C61.579 26.026 61.4865 25.8026 61.4865 25.5696V19.2717H57.7885C57.5556 19.2717 57.3322 19.1791 57.1674 19.0144C57.0027 18.8497 56.9102 18.6262 56.9102 18.3933C56.9102 18.1603 57.0027 17.9369 57.1674 17.7722C57.3322 17.6074 57.5556 17.5149 57.7885 17.5149H62.3649C62.5978 17.5149 62.8213 17.6074 62.986 17.7722C63.1507 17.9369 63.2433 18.1603 63.2433 18.3933V25.5696C63.2433 25.8026 63.1507 26.026 62.986 26.1907C62.8213 26.3555 62.5978 26.448 62.3649 26.448Z" fill="#FFCB21"/>
<path d="M57.7972 51.7365H7.20699C6.97403 51.7365 6.75061 51.644 6.58588 51.4792C6.42116 51.3145 6.32861 51.0911 6.32861 50.8581V14.1692C6.32861 13.9362 6.42116 13.7128 6.58588 13.548C6.75061 13.3833 6.97403 13.2908 7.20699 13.2908H11.8492C12.0822 13.2908 12.3056 13.3833 12.4703 13.548C12.6351 13.7128 12.7276 13.9362 12.7276 14.1692C12.7276 14.4021 12.6351 14.6255 12.4703 14.7903C12.3056 14.955 12.0822 15.0475 11.8492 15.0475H8.08537V49.9798H56.9188V15.0475H53.1506C52.9176 15.0475 52.6942 14.955 52.5295 14.7903C52.3647 14.6255 52.2722 14.4021 52.2722 14.1692C52.2722 13.9362 52.3647 13.7128 52.5295 13.548C52.6942 13.3833 52.9176 13.2908 53.1506 13.2908H57.7972C58.0302 13.2908 58.2536 13.3833 58.4183 13.548C58.583 13.7128 58.6756 13.9362 58.6756 14.1692V50.8581C58.6756 51.0911 58.583 51.3145 58.4183 51.4792C58.2536 51.644 58.0302 51.7365 57.7972 51.7365Z" fill="#FFCB21"/>
<path d="M32.5 51.7444C32.267 51.7444 32.0436 51.6518 31.8789 51.4871C31.7141 51.3224 31.6216 51.0989 31.6216 50.866V18.3897C31.6216 18.1632 31.709 17.9454 31.8658 17.7818C37.0675 12.3517 43.8354 9.95198 53.1752 10.2445C53.4034 10.2516 53.6199 10.3472 53.7788 10.5112C53.9377 10.6752 54.0265 10.8945 54.0264 11.1229V45.7635C54.0264 45.9964 53.9338 46.2199 53.7691 46.3846C53.6044 46.5493 53.381 46.6418 53.148 46.6418C52.915 46.6418 52.6916 46.5493 52.5269 46.3846C52.3622 46.2199 52.2696 45.9964 52.2696 45.7635V11.9819C44.0445 11.8827 38.0223 14.04 33.3783 18.7454V50.866C33.3783 51.0989 33.2858 51.3224 33.1211 51.4871C32.9563 51.6518 32.7329 51.7444 32.5 51.7444Z" fill="#FFCB21"/>
<path d="M32.5001 51.7444C32.2671 51.7444 32.0437 51.6519 31.879 51.4872C31.7142 51.3224 31.6217 51.099 31.6217 50.8661V18.7464C26.9724 14.0392 20.9292 11.8582 12.7216 11.9829V45.7636C12.7216 45.9965 12.6291 46.2199 12.4643 46.3847C12.2996 46.5494 12.0762 46.6419 11.8432 46.6419C11.6103 46.6419 11.3868 46.5494 11.2221 46.3847C11.0574 46.2199 10.9648 45.9965 10.9648 45.7636V11.123C10.9647 10.8945 11.0537 10.675 11.2127 10.511C11.3718 10.347 11.5885 10.2514 11.8169 10.2446C21.1514 9.95472 27.9255 12.3527 33.1342 17.7819C33.291 17.9455 33.3785 18.1633 33.3784 18.3898V50.8661C33.3784 51.099 33.2859 51.3224 33.1212 51.4872C32.9564 51.6519 32.733 51.7444 32.5001 51.7444Z" fill="#FFCB21"/>
<path d="M32.5001 51.7462C32.3009 51.7472 32.1072 51.6805 31.9509 51.557C31.7946 51.4335 31.685 51.2605 31.6399 51.0664C31.5949 50.8724 31.6172 50.6688 31.7031 50.489C31.789 50.3093 31.9334 50.1641 32.1127 50.0773C38.8762 46.7702 52.4639 44.9642 53.0383 44.8887C53.2687 44.8597 53.5011 44.9231 53.6849 45.065C53.8686 45.207 53.9887 45.4158 54.0189 45.646C54.049 45.8762 53.9869 46.109 53.8459 46.2935C53.705 46.478 53.4967 46.5991 53.2667 46.6305C53.1279 46.649 39.3883 48.4751 32.8883 51.6557C32.7676 51.7152 32.6347 51.7462 32.5001 51.7462Z" fill="#FFCB21"/>
<path d="M32.5 51.7462C32.3665 51.7467 32.2346 51.7166 32.1144 51.6584C25.6065 48.476 11.8713 46.6516 11.7361 46.6332C11.6212 46.6188 11.5104 46.5818 11.4099 46.5243C11.3094 46.4669 11.2212 46.3902 11.1505 46.2986C11.0797 46.207 11.0278 46.1023 10.9976 45.9906C10.9675 45.8788 10.9597 45.7622 10.9747 45.6475C10.9898 45.5327 11.0274 45.4221 11.0853 45.3219C11.1433 45.2217 11.2204 45.134 11.3124 45.0637C11.4044 44.9934 11.5093 44.942 11.6212 44.9125C11.7331 44.8829 11.8498 44.8757 11.9644 44.8914C12.5389 44.9669 26.1248 46.7729 32.8892 50.08C33.0684 50.1668 33.2128 50.3119 33.2987 50.4915C33.3846 50.6712 33.407 50.8747 33.362 51.0687C33.3171 51.2627 33.2076 51.4356 33.0515 51.5592C32.8953 51.6828 32.7018 51.7497 32.5027 51.7489L32.5 51.7462Z" fill="#FFCB21"/>
<path d="M36.8839 24.6595C36.6929 24.6599 36.5071 24.5979 36.3544 24.4831C36.2018 24.3682 36.0908 24.2068 36.0382 24.0232C35.9855 23.8396 35.9942 23.6439 36.0628 23.4656C36.1314 23.2874 36.2562 23.1363 36.4184 23.0354C40.148 20.6704 44.4439 19.3494 48.858 19.2101C49.091 19.2033 49.3171 19.2894 49.4866 19.4493C49.6561 19.6093 49.7551 19.83 49.7619 20.063C49.7686 20.296 49.6825 20.5221 49.5226 20.6916C49.3626 20.8611 49.1419 20.9601 48.909 20.9668C44.8058 21.0984 40.8131 22.3281 37.3468 24.5278C37.2078 24.6139 37.0475 24.6596 36.8839 24.6595Z" fill="#FFCB21"/>
<path d="M36.8839 30.7433C36.6929 30.7436 36.5071 30.6816 36.3544 30.5668C36.2018 30.452 36.0908 30.2905 36.0382 30.1069C35.9855 29.9233 35.9942 29.7276 36.0628 29.5493C36.1314 29.3711 36.2562 29.2201 36.4184 29.1191C40.1483 26.7559 44.4437 25.4362 48.8571 25.2973C48.9732 25.2906 49.0894 25.3077 49.1987 25.3475C49.3079 25.3872 49.4079 25.4489 49.4926 25.5287C49.5772 25.6084 49.6446 25.7046 49.6908 25.8113C49.7369 25.918 49.7608 26.0331 49.761 26.1493C49.7678 26.382 49.682 26.6079 49.5224 26.7774C49.3629 26.9469 49.1425 27.0461 48.9098 27.0532C44.8064 27.1856 40.8135 28.4156 37.3468 30.615C37.2075 30.6999 37.0472 30.7444 36.8839 30.7433Z" fill="#FFCB21"/>
<path d="M36.8839 36.8268C36.6929 36.8271 36.5071 36.7651 36.3544 36.6503C36.2018 36.5355 36.0908 36.374 36.0382 36.1904C35.9855 36.0068 35.9942 35.8111 36.0628 35.6328C36.1314 35.4546 36.2562 35.3036 36.4184 35.2027C40.148 32.8376 44.4439 31.5166 48.858 31.3773C48.9734 31.374 49.0882 31.3934 49.1961 31.4344C49.3039 31.4755 49.4026 31.5374 49.4866 31.6166C49.5705 31.6958 49.638 31.7907 49.6852 31.896C49.7325 32.0013 49.7585 32.1149 49.7619 32.2302C49.7652 32.3456 49.7458 32.4605 49.7047 32.5683C49.6637 32.6762 49.6018 32.7749 49.5226 32.8588C49.4434 32.9427 49.3484 33.0102 49.2432 33.0575C49.1379 33.1047 49.0243 33.1307 48.909 33.1341C44.8057 33.2651 40.8128 34.4948 37.3468 36.695C37.2078 36.7812 37.0475 36.8268 36.8839 36.8268Z" fill="#FFCB21"/>
<path d="M36.8841 42.9106C36.6923 42.9119 36.5054 42.8503 36.3519 42.7353C36.1983 42.6204 36.0867 42.4583 36.0339 42.2739C35.9811 42.0895 35.9902 41.8929 36.0596 41.7142C36.1291 41.5354 36.2551 41.3843 36.4185 41.2839C40.1482 38.9187 44.444 37.5974 48.8581 37.4576C48.9735 37.4543 49.0884 37.4737 49.1962 37.5148C49.3041 37.5558 49.4028 37.6177 49.4867 37.6969C49.5706 37.7761 49.6381 37.8711 49.6854 37.9763C49.7326 38.0816 49.7586 38.1952 49.762 38.3106C49.7653 38.4259 49.7459 38.5408 49.7049 38.6486C49.6638 38.7565 49.6019 38.8552 49.5227 38.9391C49.4435 39.023 49.3486 39.0906 49.2433 39.1378C49.138 39.185 49.0244 39.2111 48.9091 39.2144C44.8058 39.3465 40.813 40.5769 37.347 42.7771C37.2081 42.8639 37.0478 42.9101 36.8841 42.9106Z" fill="#FFCB21"/>
<path d="M28.1159 24.6595C27.9523 24.6593 27.792 24.6134 27.653 24.5269C24.1868 22.3272 20.1941 21.0975 16.0909 20.9659C15.8581 20.9591 15.6375 20.86 15.4777 20.6905C15.318 20.521 15.232 20.2949 15.2389 20.0621C15.2487 19.8304 15.3486 19.6117 15.5172 19.4526C15.6859 19.2934 15.91 19.2064 16.1419 19.2101C20.556 19.3494 24.8518 20.6704 28.5815 23.0354C28.7436 23.1363 28.8685 23.2873 28.9371 23.4656C29.0057 23.6438 29.0143 23.8396 28.9617 24.0232C28.9091 24.2068 28.7981 24.3682 28.6454 24.4831C28.4928 24.5979 28.3069 24.6598 28.1159 24.6595Z" fill="#FFCB21"/>
<path d="M28.1159 30.7432C27.9523 30.7429 27.792 30.697 27.653 30.6105C24.1863 28.4111 20.1935 27.1811 16.0901 27.0487C15.8574 27.0416 15.637 26.9424 15.4774 26.7729C15.3178 26.6034 15.232 26.3775 15.2389 26.1448C15.2407 26.029 15.2656 25.9148 15.3124 25.8088C15.3591 25.7028 15.4265 25.6073 15.5108 25.5279C15.5951 25.4484 15.6944 25.3867 15.803 25.3463C15.9115 25.3059 16.0271 25.2878 16.1428 25.2928C20.5565 25.433 24.852 26.7543 28.5815 29.119C28.7436 29.22 28.8685 29.371 28.9371 29.5492C29.0057 29.7275 29.0143 29.9232 28.9617 30.1068C28.9091 30.2904 28.7981 30.4519 28.6454 30.5667C28.4928 30.6815 28.3069 30.7435 28.1159 30.7432Z" fill="#FFCB21"/>
<path d="M28.1161 36.8269C27.9524 36.8267 27.7921 36.7808 27.6532 36.6943C24.1872 34.4941 20.1943 33.2644 16.0911 33.1333C15.8581 33.1266 15.6374 33.0276 15.4774 32.8581C15.3175 32.6886 15.2314 32.4625 15.2382 32.2295C15.2449 31.9965 15.3439 31.7758 15.5134 31.6158C15.683 31.4559 15.9091 31.3698 16.142 31.3766C20.5561 31.5159 24.852 32.8369 28.5816 35.2019C28.7438 35.3028 28.8686 35.4539 28.9372 35.6321C29.0058 35.8104 29.0145 36.0061 28.9619 36.1897C28.9092 36.3733 28.7982 36.5347 28.6456 36.6496C28.4929 36.7644 28.3071 36.8264 28.1161 36.826V36.8269Z" fill="#FFCB21"/>
<path d="M28.1159 42.9106C27.9523 42.9104 27.7919 42.8644 27.653 42.778C24.1869 40.578 20.1941 39.348 16.0909 39.2161C15.8582 39.2093 15.6378 39.1103 15.478 38.941C15.3183 38.7717 15.2323 38.5459 15.2389 38.3132C15.2493 38.0816 15.3494 37.8632 15.5179 37.7041C15.6864 37.545 15.9101 37.4575 16.1419 37.4603C20.5557 37.5992 24.8515 38.9196 28.5814 41.2839C28.7436 41.3848 28.8684 41.5358 28.9371 41.714C29.0057 41.8923 29.0143 42.088 28.9617 42.2716C28.9091 42.4552 28.798 42.6167 28.6454 42.7315C28.4928 42.8463 28.3069 42.9083 28.1159 42.908V42.9106Z" fill="#FFCB21"/>
</svg>
