<svg width="48" height="51" viewBox="0 0 48 51" fill="none" xmlns="http://www.w3.org/2000/svg">
<path d="M31.5 1.59375C23.502 1.59375 15 4.386 15 9.5625V15.9375C15 16.8173 15.672 17.5312 16.5 17.5312C17.328 17.5312 18 16.8173 18 15.9375V14.2768C21.183 16.4093 26.439 17.5312 31.5 17.5312C36.561 17.5312 41.817 16.4093 45 14.2768V15.9375C45 17.4962 41.31 19.9824 34.374 20.5976C33.552 20.6677 32.937 21.4423 33.006 22.3189C33.069 23.1508 33.726 23.7787 34.497 23.7787C34.542 23.7787 34.581 23.7756 34.626 23.7724C38.532 23.4249 42.423 22.3507 45 20.6072V22.3125C45 23.6736 42.282 25.6307 37.239 26.5774C36.426 26.7304 35.88 27.5591 36.024 28.4229C36.153 29.1943 36.786 29.7394 37.497 29.7394C37.584 29.7394 37.674 29.733 37.761 29.7139C40.812 29.1433 43.254 28.2094 45 27.0236V28.6875C45 30.0486 42.282 32.0057 37.239 32.9524C36.426 33.1054 35.88 33.9341 36.024 34.7979C36.153 35.5693 36.786 36.1144 37.497 36.1144C37.584 36.1144 37.674 36.108 37.761 36.0889C40.812 35.5183 43.254 34.5812 45 33.3986V35.0625C45 36.4236 42.282 38.3807 37.239 39.3274C36.426 39.4804 35.88 40.3091 36.024 41.1729C36.153 41.9443 36.786 42.4894 37.497 42.4894C37.584 42.4894 37.674 42.483 37.761 42.4639C40.812 41.8933 43.254 40.9562 45 39.7736V41.4375C45 42.9962 41.31 45.4824 34.374 46.0976C33.552 46.1678 32.937 46.9423 33.006 47.8189C33.069 48.6508 33.726 49.2788 34.497 49.2788C34.542 49.2788 34.581 49.2756 34.626 49.2724C41.283 48.6795 48 46.0307 48 41.4375V9.5625C48 4.386 39.498 1.59375 31.5 1.59375ZM31.5 14.3438C23.259 14.3438 18 11.5101 18 9.5625C18 7.61494 23.259 4.78125 31.5 4.78125C39.741 4.78125 45 7.61494 45 9.5625C45 11.5101 39.741 14.3438 31.5 14.3438Z" fill="#3C0786"/>
<path d="M16.5 20.7188C8.502 20.7188 0 23.511 0 28.6875V41.4375C0 46.614 8.502 49.4062 16.5 49.4062C24.498 49.4062 33 46.614 33 41.4375V28.6875C33 23.511 24.498 20.7188 16.5 20.7188ZM30 41.4375C30 43.3851 24.741 46.2188 16.5 46.2188C8.259 46.2188 3 43.3851 3 41.4375V39.7768C6.183 41.9093 11.439 43.0312 16.5 43.0312C21.561 43.0312 26.817 41.9093 30 39.7768V41.4375ZM30 35.0625C30 37.0101 24.741 39.8438 16.5 39.8438C8.259 39.8438 3 37.0101 3 35.0625V33.4018C6.183 35.5343 11.439 36.6562 16.5 36.6562C21.561 36.6562 26.817 35.5343 30 33.4018V35.0625ZM16.5 33.4688C8.259 33.4688 3 30.6351 3 28.6875C3 26.7399 8.259 23.9062 16.5 23.9062C24.741 23.9062 30 26.7399 30 28.6875C30 30.6351 24.741 33.4688 16.5 33.4688Z" fill="#3C0786"/>
</svg>
