<svg width="50" height="49" viewBox="0 0 50 49" fill="none" xmlns="http://www.w3.org/2000/svg">
<path d="M33.7551 23.0451C33.7517 23.0451 33.7483 23.0451 33.7448 23.0451H29.5576V18.9315C29.5632 18.1019 28.8815 17.4247 28.035 17.4192C28.0315 17.4192 28.028 17.4192 28.0247 17.4192H21.9753C21.1287 17.4192 20.4424 18.0918 20.4424 18.9215V23.035H16.2551C15.4085 23.0295 14.7176 23.6974 14.7119 24.5271C14.7119 24.5339 14.7119 24.5406 14.7119 24.5474V30.4657C14.7119 31.2953 15.3983 31.968 16.2448 31.968H20.4424V36.0715C20.4367 36.9011 21.1184 37.5783 21.965 37.5838C21.9685 37.5838 21.9719 37.5838 21.9753 37.5838H28.0144C28.861 37.5838 29.5473 36.9112 29.5473 36.0815V31.968H33.7448C34.5914 31.9735 35.2824 31.3054 35.288 30.4758C35.288 30.4724 35.288 30.469 35.288 30.4657V24.5474C35.288 23.7177 34.6018 23.0451 33.7551 23.0451ZM33.2304 29.9515H28.5288C27.9606 29.9515 27.5 30.4029 27.5 30.9597V35.5673H22.5V30.9597C22.5 30.4029 22.0393 29.9515 21.4712 29.9515H16.7695V25.0616H21.4712C22.0393 25.0616 22.5 24.6101 22.5 24.0533V19.4357H27.4897V24.0433C27.4897 24.6001 27.9503 25.0515 28.5185 25.0515H33.2304V29.9515Z" fill="#FFCB21"/>
<path d="M42.9012 9.87751H34.4239V6.32854C34.4772 4.70907 33.1808 3.35376 31.5283 3.30146C31.4441 3.29881 31.3598 3.29957 31.2757 3.30385H18.7243C17.073 3.21954 15.6647 4.46294 15.5786 6.08102C15.5742 6.16344 15.5733 6.24599 15.5761 6.32854V9.85735H7.09877C3.82716 9.85735 0 11.6822 0 16.8141V38.7431C0 43.875 3.82716 45.6999 7.09877 45.6999H42.9012C46.1728 45.6999 50 43.875 50 38.7431V16.8343C50 11.7024 46.1831 9.87751 42.9012 9.87751ZM17.6337 6.32854C17.6337 6.03616 17.6337 5.24974 18.7346 5.24974H31.2757C32.3765 5.24974 32.3765 6.02607 32.3765 6.32854V9.85735H17.6337V6.32854ZM47.9424 38.7431C47.9424 43.1995 44.4239 43.6835 42.9012 43.6835H7.09877C5.58642 43.6835 2.05761 43.1995 2.05761 38.7431V16.8343C2.05761 12.3779 5.57613 11.894 7.09877 11.894H42.9012C44.4136 11.894 47.9424 12.3779 47.9424 16.8343V38.7431Z" fill="#FFCB21"/>
</svg>
