<svg width="59" height="59" viewBox="0 0 59 59" fill="none" xmlns="http://www.w3.org/2000/svg">
<g clip-path="url(#clip0)">
<path d="M58.7313 20.942C58.4986 20.3866 58.0633 19.9549 57.506 19.7271L53.57 18.1166C53.0132 17.8888 52.4001 17.891 51.8447 18.1242C51.2888 18.3574 50.8575 18.7927 50.6293 19.3495L46.1487 30.3008V12.4053C46.1487 12.173 46.0564 11.9497 45.8921 11.7854L34.3628 0.256576C34.1985 0.0922775 33.9757 0 33.7434 0H0.876412C0.392517 0 0 0.392517 0 0.876411V7.63878C0 8.12267 0.392517 8.51519 0.876412 8.51519C1.36031 8.51519 1.75237 8.12267 1.75237 7.63878V1.75237H32.8666V12.4053C32.8666 12.8891 33.2591 13.2812 33.743 13.2812H44.3963V34.5843L40.5332 44.0249C40.4846 44.1438 40.4626 44.2721 40.4693 44.4003L40.8816 52.6482C40.8988 52.9876 41.1103 53.2864 41.425 53.4152C41.5321 53.4593 41.6446 53.4805 41.7567 53.4805C41.9728 53.4805 42.1852 53.4008 42.35 53.2491L44.3958 51.3657V57.2476H1.75237V11.144C1.75237 10.6601 1.36031 10.2676 0.876412 10.2676C0.392517 10.2676 0 10.6601 0 11.144V58.1236C0 58.6075 0.392517 59 0.876412 59H45.2723C45.7562 59 46.1487 58.6075 46.1487 58.1236V49.7524L48.4259 47.6562C48.5204 47.5688 48.5942 47.4622 48.6433 47.3433L52.6157 37.6339C52.799 37.186 52.5842 36.6742 52.1364 36.491C51.6889 36.3078 51.1771 36.5221 50.9939 36.97L47.3528 45.8687L42.4868 43.8777L49.964 25.6036L54.83 27.5946L52.2502 33.8996C52.067 34.3475 52.2813 34.8593 52.7296 35.0425C53.1775 35.2257 53.6889 35.0114 53.8721 34.5636L58.7394 22.6679C58.9671 22.1106 58.9644 21.4975 58.7313 20.942ZM34.6194 2.99114L43.1571 11.5293H34.6194V2.99114ZM42.2883 45.6895L46.2247 47.3001L42.5386 50.6937L42.2883 45.6895ZM57.1171 22.0039L55.4935 25.9723L50.6275 23.9814L52.2511 20.013C52.302 19.8892 52.3983 19.7924 52.5221 19.7406C52.6464 19.6884 52.7827 19.6875 52.9065 19.7384L56.8425 21.349C56.9663 21.3994 57.0631 21.4957 57.1148 21.6195C57.1671 21.7437 57.168 21.8801 57.1171 22.0039Z" fill="#FFCB21"/>
<path d="M29.1601 9.56628H18.2953C17.8114 9.56628 17.4188 9.95835 17.4188 10.4422C17.4188 10.9261 17.8114 11.3187 18.2953 11.3187H29.1601C29.644 11.3187 30.0366 10.9261 30.0366 10.4422C30.0366 9.95835 29.644 9.56628 29.1601 9.56628Z" fill="#FFCB21"/>
<path d="M6.77677 28.7843H13.7043C14.1882 28.7843 14.5803 28.3918 14.5803 27.9079V21.7024L15.8879 20.0378C16.1868 19.6574 16.1207 19.1064 15.7403 18.8075C15.3599 18.5087 14.809 18.5748 14.5101 18.9552L13.6071 20.1044H6.77677C6.29288 20.1044 5.90036 20.4964 5.90036 20.9803V27.9079C5.90036 28.3918 6.29288 28.7843 6.77677 28.7843ZM7.65273 21.8568H12.2301L10.8356 23.6316L9.86064 22.6562C9.51854 22.3141 8.96352 22.3141 8.62142 22.6562C8.27932 22.9987 8.27932 23.5533 8.62142 23.8954L10.295 25.569C10.4598 25.7338 10.683 25.8256 10.9144 25.8256C10.932 25.8256 10.9495 25.8251 10.9671 25.8242C11.2169 25.8094 11.4487 25.6878 11.6036 25.4907L12.8279 23.9328V27.0319H7.65273V21.8568Z" fill="#FFCB21"/>
<path d="M38.5058 21.4651H19.7555C19.2716 21.4651 18.8791 21.8576 18.8791 22.3415C18.8791 22.8254 19.2716 23.2179 19.7555 23.2179H38.5058C38.9902 23.2179 39.3822 22.8254 39.3822 22.3415C39.3822 21.8576 38.9902 21.4651 38.5058 21.4651Z" fill="#FFCB21"/>
<path d="M19.7555 27.4235H34.826C35.3099 27.4235 35.702 27.031 35.702 26.5471C35.702 26.0632 35.3099 25.6711 34.826 25.6711H19.7555C19.2716 25.6711 18.8791 26.0632 18.8791 26.5471C18.8791 27.031 19.2716 27.4235 19.7555 27.4235Z" fill="#FFCB21"/>
<path d="M5.90036 39.4151C5.90036 39.899 6.29288 40.2915 6.77677 40.2915H13.7043C14.1882 40.2915 14.5803 39.899 14.5803 39.4151V33.2096L15.8879 31.545C16.1868 31.1646 16.1207 30.6136 15.7403 30.3147C15.3599 30.0159 14.809 30.082 14.5101 30.4624L13.6071 31.6116H6.77677C6.29288 31.6116 5.90036 32.0037 5.90036 32.4875V39.4151ZM7.65273 33.364H12.2301L10.8356 35.1388L9.86064 34.1634C9.51854 33.8213 8.96352 33.8213 8.62142 34.1634C8.27932 34.5059 8.27932 35.0605 8.62142 35.4026L10.295 37.0762C10.4598 37.241 10.683 37.3328 10.9144 37.3328C10.932 37.3328 10.9495 37.3323 10.9671 37.3314C11.2169 37.3166 11.4487 37.1951 11.6036 36.9979L12.8279 35.44V38.5392H7.65273V33.364Z" fill="#FFCB21"/>
<path d="M38.5058 32.9724H19.7555C19.2716 32.9724 18.8791 33.3649 18.8791 33.8488C18.8791 34.3327 19.2716 34.7247 19.7555 34.7247H38.5058C38.9902 34.7247 39.3822 34.3327 39.3822 33.8488C39.3822 33.3649 38.9902 32.9724 38.5058 32.9724Z" fill="#FFCB21"/>
<path d="M19.7555 38.9308H25.3633C25.8471 38.9308 26.2392 38.5383 26.2392 38.0544C26.2392 37.5705 25.8471 37.1784 25.3633 37.1784H19.7555C19.2716 37.1784 18.8791 37.5705 18.8791 38.0544C18.8791 38.5383 19.2716 38.9308 19.7555 38.9308Z" fill="#FFCB21"/>
<path d="M5.90036 50.9224C5.90036 51.4063 6.29288 51.7988 6.77677 51.7988H13.7043C14.1882 51.7988 14.5803 51.4063 14.5803 50.9224V43.9952C14.5803 43.5114 14.1882 43.1188 13.7043 43.1188H6.77677C6.29288 43.1188 5.90036 43.5114 5.90036 43.9952V50.9224ZM7.65273 44.8712H12.8279V50.046H7.65273V44.8712Z" fill="#FFCB21"/>
<path d="M39.3822 45.356C39.3822 44.8721 38.9902 44.4796 38.5058 44.4796H19.7555C19.2716 44.4796 18.8791 44.8721 18.8791 45.356C18.8791 45.8399 19.2716 46.2319 19.7555 46.2319H38.5058C38.9902 46.2319 39.3822 45.8399 39.3822 45.356Z" fill="#FFCB21"/>
<path d="M19.7555 48.6852C19.2716 48.6852 18.8791 49.0777 18.8791 49.5616C18.8791 50.0455 19.2716 50.438 19.7555 50.438H35.7019C36.1863 50.438 36.5784 50.0455 36.5784 49.5616C36.5784 49.0777 36.1863 48.6852 35.7019 48.6852H19.7555Z" fill="#FFCB21"/>
</g>
<defs>
<clipPath id="clip0">
<rect width="59" height="59" fill="white"/>
</clipPath>
</defs>
</svg>
