<svg width="196" height="196" viewBox="0 0 196 196" fill="none" xmlns="http://www.w3.org/2000/svg">
<path d="M109.845 72.9824H121.385V84.533C121.385 86.6473 123.099 88.3611 125.213 88.3611H143.848C145.963 88.3611 147.677 86.6473 147.677 84.533V72.9824H159.217C161.331 72.9824 163.045 71.2686 163.045 69.1543V50.5067C163.045 48.3925 161.331 46.6786 159.217 46.6786H147.677V35.128C147.677 33.0137 145.963 31.2999 143.848 31.2999H125.213C123.099 31.2999 121.385 33.0137 121.385 35.128V46.6786H109.845C107.73 46.6786 106.017 48.3925 106.017 50.5067V69.1543C106.017 71.2686 107.73 72.9824 109.845 72.9824ZM113.673 54.3349H125.213C127.327 54.3349 129.041 52.621 129.041 50.5067V38.9561H140.02V50.5067C140.02 52.621 141.734 54.3349 143.848 54.3349H155.389V65.3262H143.848C141.734 65.3262 140.02 67.04 140.02 69.1543V80.7049H129.041V69.1543C129.041 67.04 127.327 65.3262 125.213 65.3262H113.673V54.3349Z" fill="#F4F9FE"/>
<path d="M177.696 10.2088H94.129C84.0361 10.2088 75.8252 18.4201 75.8252 28.513V90.0359H3.82812C1.71385 90.0359 0 91.7498 0 93.8641V113.392C0 115.506 1.71385 117.22 3.82812 117.22H5.81377V174.399C5.81377 180.68 10.922 185.791 17.2009 185.791H177.695C187.788 185.791 196 177.579 196 167.487V28.513C196 18.4201 187.789 10.2088 177.696 10.2088ZM7.65625 97.6922H81.639V109.564H70.0007V105.224C70.0007 103.11 68.2869 101.396 66.1726 101.396C64.0583 101.396 62.3445 103.11 62.3445 105.224V109.564H48.4755V105.224C48.4755 103.11 46.7617 101.396 44.6474 101.396C42.5331 101.396 40.8193 103.11 40.8193 105.224V109.564H26.9508V105.224C26.9508 103.11 25.2369 101.396 23.1226 101.396C21.0084 101.396 19.2945 103.11 19.2945 105.224V109.564H7.65625V97.6922ZM13.47 136.024H50.857V153.975H13.47V136.024ZM17.2013 178.135C15.1441 178.135 13.4704 176.459 13.4704 174.399V161.631H54.6855C56.7998 161.631 58.5137 159.918 58.5137 157.803V132.196C58.5137 130.082 56.7998 128.368 54.6855 128.368H13.47V117.22H75.8248V174.399C75.8248 176.459 74.1512 178.134 72.0939 178.134H17.2013V178.135ZM188.344 167.487C188.344 173.358 183.567 178.135 177.696 178.135H82.8521C83.2594 176.964 83.4811 175.707 83.4811 174.399V117.22H85.4671C87.5814 117.22 89.2952 115.506 89.2952 113.392V93.8641C89.2952 91.7498 87.5814 90.0359 85.4671 90.0359H83.4811V28.513C83.4811 22.6418 88.2578 17.8651 94.1286 17.8651H177.695C183.567 17.8651 188.343 22.6418 188.343 28.513V167.487H188.344Z" fill="#F4F9FE"/>
<path d="M168.055 125.391H101.006C98.8921 125.391 97.1782 127.104 97.1782 129.219V157.803C97.1782 159.917 98.8921 161.631 101.006 161.631H168.055C170.169 161.631 171.883 159.917 171.883 157.803V129.219C171.883 127.104 170.169 125.391 168.055 125.391ZM164.227 153.975H104.834V133.047H164.227V153.975Z" fill="#F4F9FE"/>
<path d="M168.055 106.334H101.006C98.8921 106.334 97.1782 108.048 97.1782 110.162C97.1782 112.277 98.8921 113.99 101.006 113.99H168.055C170.169 113.99 171.883 112.277 171.883 110.162C171.883 108.048 170.169 106.334 168.055 106.334Z" fill="#F4F9FE"/>
</svg>
