<svg width="195" height="196" viewBox="0 0 195 196" fill="none" xmlns="http://www.w3.org/2000/svg">
<path d="M193.53 21.734C192.601 21.0086 191.392 20.7548 190.253 21.0461L172.133 25.677C169.224 26.42 166.227 26.7971 163.226 26.7971H136.634C128.008 26.7971 120.803 33.0182 119.502 41.5901C118.773 46.3943 114.734 49.881 109.899 49.881H108.926V41.8844C115.495 37.9537 119.907 30.7473 119.907 22.5215C119.908 10.1031 109.856 -6.10352e-05 97.5006 -6.10352e-05C85.1452 -6.10352e-05 75.094 10.1031 75.094 22.5215C75.094 30.7473 79.5062 37.9537 86.0749 41.8844V49.881H85.1018C80.2672 49.881 76.2282 46.3943 75.4992 41.5901C74.1982 33.0182 66.9927 26.7971 58.3667 26.7971H31.7756C28.7744 26.7971 25.7774 26.4204 22.8681 25.677L4.74799 21.0465C3.60999 20.7556 2.4 21.009 1.47147 21.7344C0.543699 22.4595 0.000976562 23.575 0.000976562 24.7563C0.000976562 32.8371 3.10268 40.2012 8.16733 45.7183C8.27854 55.0087 12.658 63.2805 19.4232 68.6498L23.0059 73.4625C31.175 84.4369 44.1938 90.9891 57.8308 90.9891C68.2915 90.9891 78.2048 87.2931 86.0749 80.52V94.1722H82.6589C69.0787 94.1722 58.03 105.278 58.03 118.927C58.03 123.099 59.0831 127.224 61.0746 130.857C61.7685 132.124 63.0707 132.839 64.4139 132.839C65.0355 132.839 65.6658 132.686 66.2482 132.363C68.0907 131.343 68.7614 129.015 67.7465 127.163C66.3735 124.658 65.6472 121.81 65.6472 118.927C65.6472 109.499 73.2784 101.828 82.6589 101.828H86.0749V136.026H77.1247C67.0796 136.026 58.9071 144.24 58.9071 154.337C58.9071 164.434 67.0796 172.648 77.1247 172.648H87.7141C89.0345 179.837 91.1464 186.868 94.0481 193.679C94.648 195.087 96.0251 196 97.549 196H97.5558C99.0823 195.997 100.46 195.079 101.056 193.666L101.131 193.488C103.971 186.735 106.038 179.768 107.328 172.648H111.656C115.961 172.648 119.464 176.169 119.464 180.496C119.464 184.823 115.961 188.344 111.656 188.344H111.397C109.294 188.344 107.589 190.058 107.589 192.172C107.589 194.286 109.294 196 111.397 196H111.656C120.161 196 127.081 189.045 127.081 180.496C127.081 171.947 120.161 164.992 111.656 164.992H108.411C108.753 161.633 108.926 158.246 108.926 154.835V143.682H111.466C125.046 143.682 136.094 132.577 136.094 118.927C136.094 105.278 125.046 94.1722 111.466 94.1722H108.926V80.52C116.797 87.2935 126.71 90.9891 137.17 90.9891C150.807 90.9891 163.825 84.4373 171.995 73.4625L175.578 68.6498C182.344 63.2805 186.723 55.0083 186.834 45.7179C191.899 40.2012 195 32.8371 195 24.7563C195 23.575 194.457 22.4595 193.53 21.734ZM83.0596 72.9101C76.299 79.6315 67.3393 83.3329 57.8308 83.3329C49.3594 83.3329 41.1782 80.2666 34.7763 74.8862C35.7323 74.9804 36.7008 75.0313 37.6812 75.0313H44.059C46.1621 75.0313 47.8676 73.317 47.8676 71.2032C47.8676 69.0893 46.1621 67.3751 44.059 67.3751H37.6812C28.042 67.3751 19.8425 61.0809 16.9217 52.3689C21.0902 54.4919 25.7969 55.697 30.7808 55.6978L38.6581 55.6989H38.6584C40.7612 55.6989 42.4666 53.9851 42.467 51.8712C42.4674 49.7573 40.7623 48.0431 38.6588 48.0427L30.7815 48.0416C19.7393 48.04 10.4769 40.2318 8.17038 29.8205L20.992 33.097C24.5141 33.9974 28.1422 34.4533 31.7756 34.4533H58.3667C63.2017 34.4533 67.2403 37.94 67.9693 42.7442C69.2703 51.3161 76.4757 57.5372 85.1018 57.5372H86.0749V69.9127L83.0596 72.9101ZM77.1247 164.992C71.2797 164.992 66.5243 160.212 66.5243 154.337C66.5243 148.462 71.2797 143.682 77.1247 143.682H86.0749V154.607C86.0749 158.095 86.2573 161.558 86.6138 164.992H77.1247ZM101.309 154.835C101.309 163.748 100.042 172.496 97.5345 180.947C94.9816 172.426 93.692 163.603 93.692 154.607V143.682H101.309V154.835ZM101.309 136.026H93.692V44.7111C94.9306 44.9255 96.2019 45.0434 97.5006 45.0434C98.7993 45.0434 100.071 44.9255 101.309 44.7111V136.026ZM111.466 101.828C120.846 101.828 128.477 109.498 128.477 118.927C128.477 128.355 120.846 136.026 111.466 136.026H108.926V101.828H111.466ZM97.5006 37.3868C89.3453 37.3868 82.7111 30.7182 82.7111 22.5215C82.7111 14.3247 89.3457 7.65616 97.5006 7.65616C105.656 7.65616 112.29 14.3247 112.29 22.5215C112.29 30.7182 105.656 37.3868 97.5006 37.3868ZM164.22 48.0416L156.343 48.0427C154.24 48.0431 152.535 49.7573 152.535 51.8712C152.535 53.9855 154.241 55.6993 156.344 55.6989L164.221 55.6978C169.205 55.697 173.912 54.4923 178.08 52.3689C175.159 61.0809 166.96 67.3751 157.321 67.3751H150.943C148.839 67.3751 147.134 69.0893 147.134 71.2032C147.134 73.317 148.839 75.0313 150.943 75.0313H157.32C158.301 75.0313 159.269 74.9804 160.225 74.8862C153.823 80.2666 145.642 83.3329 137.171 83.3329C127.662 83.3329 118.703 79.6315 111.942 72.9105L108.926 69.9127V57.5372H109.899C118.525 57.5372 125.731 51.3161 127.032 42.7442C127.761 37.94 131.8 34.4533 136.634 34.4533H163.226C166.859 34.4533 170.487 33.9974 174.01 33.097L186.831 29.8205C184.524 40.2315 175.262 48.04 164.22 48.0416Z" fill="#F4F9FE"/>
</svg>
