<svg width="196" height="196" viewBox="0 0 196 196" fill="none" xmlns="http://www.w3.org/2000/svg">
<g clip-path="url(#clip0)">
<path d="M91.3234 58.2015H81.1514V48.0294C81.1514 45.9151 79.4371 44.2017 77.3236 44.2017C75.2101 44.2017 73.4959 45.9155 73.4959 48.0294V58.2015H63.3238C61.2099 58.2015 59.4961 59.9153 59.4961 62.0292C59.4961 64.1431 61.2099 65.857 63.3238 65.857H73.4959V76.029C73.4959 78.1433 75.2101 79.8568 77.3236 79.8568C79.4371 79.8568 81.1514 78.1429 81.1514 76.029V65.857H91.3234C93.4373 65.857 95.1512 64.1431 95.1512 62.0292C95.1512 59.9153 93.4373 58.2015 91.3234 58.2015Z" fill="#F4F9FE"/>
<path d="M77.3232 28.3441C58.7492 28.3441 43.6377 43.4556 43.6377 62.0296C43.6377 80.6036 58.7492 95.7151 77.3232 95.7151C95.8972 95.7151 111.009 80.6036 111.009 62.0296C111.009 43.4556 95.8972 28.3441 77.3232 28.3441ZM77.3232 88.0589C62.9705 88.0589 51.2935 76.382 51.2935 62.0292C51.2935 47.6765 62.9705 35.9996 77.3232 35.9996C91.676 35.9996 103.353 47.6765 103.353 62.0292C103.353 76.382 91.676 88.0589 77.3232 88.0589Z" fill="#F4F9FE"/>
<path d="M153.525 35.1949L119.457 1.12654C118.739 0.408771 117.766 0.00528717 116.75 0.00528717H11.4836C5.1515 0.00528717 0 5.15717 0 11.4893V184.51C0 190.842 5.1515 195.994 11.4836 195.994H84.6041C86.718 195.994 88.4318 194.28 88.4318 192.166C88.4318 190.053 86.7176 188.338 84.6041 188.338H11.4836C9.37276 188.338 7.65585 186.621 7.65585 184.511V11.4893C7.65585 9.37843 9.37315 7.66152 11.4836 7.66152H112.922V30.2459C112.922 36.578 118.074 41.7295 124.406 41.7295H146.99V109.866C146.99 111.98 148.704 113.693 150.818 113.693C152.931 113.693 154.646 111.979 154.646 109.866V37.9014C154.646 36.8861 154.243 35.9126 153.525 35.1949ZM124.406 34.0736C122.295 34.0736 120.578 32.3563 120.578 30.2459V13.0749L141.578 34.0736H124.406Z" fill="#F4F9FE"/>
<path d="M126.32 107.186H59.8424C57.7285 107.186 56.0146 108.901 56.0146 111.014C56.0146 113.128 57.7289 114.842 59.8424 114.842H126.32C128.434 114.842 130.148 113.128 130.148 111.014C130.148 108.901 128.434 107.186 126.32 107.186Z" fill="#F4F9FE"/>
<path d="M40.799 107.186H28.3263C26.2124 107.186 24.4985 108.901 24.4985 111.014C24.4985 113.128 26.2128 114.842 28.3263 114.842H40.799C42.9129 114.842 44.6268 113.128 44.6268 111.014C44.6268 108.901 42.9129 107.186 40.799 107.186Z" fill="#F4F9FE"/>
<path d="M97.9938 128.622H59.8424C57.7285 128.622 56.0146 130.337 56.0146 132.45C56.0146 134.564 57.7289 136.278 59.8424 136.278H97.9938C100.108 136.278 101.822 134.564 101.822 132.45C101.822 130.337 100.108 128.622 97.9938 128.622Z" fill="#F4F9FE"/>
<path d="M40.799 128.622H28.3263C26.2124 128.622 24.4985 130.337 24.4985 132.45C24.4985 134.564 26.2128 136.278 28.3263 136.278H40.799C42.9129 136.278 44.6268 134.564 44.6268 132.45C44.6268 130.337 42.9129 128.622 40.799 128.622Z" fill="#F4F9FE"/>
<path d="M62.5474 151.18C61.8357 150.468 60.8515 150.059 59.8413 150.059C58.8345 150.059 57.8507 150.468 57.1348 151.18C56.4228 151.892 56.0132 152.88 56.0132 153.887C56.0132 154.894 56.4224 155.881 57.1348 156.593C57.8468 157.305 58.8345 157.715 59.8413 157.715C60.8519 157.715 61.8357 157.305 62.5474 156.593C63.2633 155.881 63.6694 154.894 63.6694 153.887C63.6694 152.88 63.2633 151.892 62.5474 151.18Z" fill="#F4F9FE"/>
<path d="M40.799 150.059H28.3263C26.2124 150.059 24.4985 151.773 24.4985 153.886C24.4985 156 26.2128 157.714 28.3263 157.714H40.799C42.9129 157.714 44.6268 156 44.6268 153.886C44.6272 151.773 42.9129 150.059 40.799 150.059Z" fill="#F4F9FE"/>
<path d="M172.266 148.527C171.143 148.527 170.039 148.611 168.957 148.763C171.369 140.672 169.388 131.541 163.011 125.164C158.529 120.681 152.569 118.213 146.23 118.213C139.89 118.213 133.93 120.681 129.448 125.164L99.1327 155.479C94.6504 159.961 92.1816 165.921 92.1816 172.26C92.1816 178.6 94.6504 184.56 99.1327 189.042C103.76 193.669 109.836 195.982 115.914 195.982C121.991 195.982 128.07 193.668 132.696 189.042L148.557 173.181C149.043 185.842 159.489 195.993 172.267 195.993C185.353 195.993 196 185.347 196 172.26C196 159.173 185.353 148.527 172.266 148.527ZM127.282 183.629C121.014 189.898 110.814 189.898 104.546 183.629C101.509 180.592 99.8371 176.555 99.8371 172.261C99.8371 167.966 101.509 163.929 104.546 160.893L116.997 148.442L139.733 171.178L127.282 183.629ZM145.146 165.764L122.41 143.028L134.861 130.577C137.898 127.541 141.935 125.868 146.229 125.868C150.523 125.868 154.561 127.541 157.597 130.577C163.865 136.846 163.865 147.045 157.597 153.313L145.146 165.764ZM168.439 187.874C161.416 186.151 156.189 179.806 156.189 172.26C156.189 164.714 161.416 158.369 168.439 156.647V187.874ZM176.094 187.874V156.647C183.117 158.369 188.344 164.714 188.344 172.26C188.344 179.805 183.117 186.151 176.094 187.874Z" fill="#F4F9FE"/>
</g>
<defs>
<clipPath id="clip0">
<rect width="196" height="196" fill="white"/>
</clipPath>
</defs>
</svg>
