<svg width="794" height="845" viewBox="0 0 794 845" fill="none" xmlns="http://www.w3.org/2000/svg">
<path d="M787.447 94.3071C783.669 91.1854 778.748 90.0932 774.115 91.3468L700.388 111.275C688.548 114.472 676.354 116.095 664.143 116.095H555.947C520.848 116.095 491.53 142.866 486.236 179.753C483.27 200.427 466.836 215.431 447.164 215.431H443.205V181.02C469.932 164.105 487.885 133.094 487.885 97.6957C487.887 44.2559 446.988 0.779297 396.715 0.779297C346.442 0.779297 305.545 44.2559 305.545 97.6957C305.545 133.094 323.498 164.105 350.225 181.02V215.431H346.266C326.594 215.431 310.16 200.427 307.194 179.753C301.9 142.866 272.582 116.095 237.484 116.095H129.287C117.076 116.095 104.882 114.474 93.0436 111.275L19.3151 91.3484C14.6847 90.0965 9.76136 91.187 5.98327 94.3087C2.20828 97.4288 0 102.229 0 107.313C0 142.087 12.6205 173.776 33.228 197.518C33.6805 237.497 51.5001 273.093 79.0269 296.199L93.6046 316.909C126.843 364.135 179.816 392.331 235.303 392.331C277.866 392.331 318.203 376.426 350.225 347.279V406.028H336.326C281.069 406.028 236.114 453.818 236.114 512.557C236.114 530.506 240.398 548.258 248.502 563.895C251.325 569.344 256.623 572.423 262.089 572.423C264.618 572.423 267.183 571.764 269.552 570.375C277.05 565.985 279.779 555.966 275.649 547.998C270.062 537.216 267.107 524.962 267.107 512.557C267.107 471.983 298.158 438.975 336.326 438.975H350.225V586.137H313.808C272.935 586.137 239.682 621.486 239.682 664.936C239.682 708.385 272.935 743.733 313.808 743.733H356.895C362.267 774.667 370.86 804.922 382.667 834.233C385.108 840.294 390.712 844.221 396.912 844.221H396.94C403.151 844.21 408.756 840.258 411.18 834.177L411.485 833.411C423.042 804.352 431.451 774.371 436.703 743.733H454.312C471.829 743.733 486.08 758.882 486.08 777.504C486.08 796.125 471.829 811.274 454.312 811.274H453.259C444.702 811.274 437.763 818.651 437.763 827.748C437.763 836.844 444.702 844.221 453.259 844.221H454.312C488.919 844.221 517.073 814.292 517.073 777.504C517.073 740.715 488.919 710.786 454.312 710.786H441.11C442.498 696.331 443.205 681.754 443.205 667.078V619.084H453.537C508.793 619.084 553.748 571.296 553.748 512.557C553.748 453.818 508.793 406.028 453.537 406.028H443.205V347.279C475.229 376.427 515.564 392.331 558.127 392.331C613.613 392.331 666.582 364.137 699.825 316.909L714.403 296.199C741.931 273.093 759.75 237.496 760.202 197.516C780.811 173.776 793.43 142.087 793.43 107.313C793.43 102.229 791.222 97.4288 787.447 94.3071ZM337.956 314.532C310.448 343.456 273.992 359.384 235.303 359.384C200.834 359.384 167.545 346.189 141.497 323.035C145.387 323.441 149.328 323.66 153.316 323.66H179.267C187.824 323.66 194.764 316.283 194.764 307.186C194.764 298.09 187.824 290.713 179.267 290.713H153.316C114.096 290.713 80.7331 263.627 68.8487 226.137C85.8098 235.273 104.961 240.459 125.24 240.462L157.291 240.467H157.293C165.849 240.467 172.788 233.092 172.79 223.996C172.791 214.899 165.853 207.522 157.294 207.521L125.243 207.516C80.3131 207.509 42.6252 173.908 33.2404 129.105L85.41 143.205C99.7413 147.08 114.503 149.042 129.287 149.042H237.484C257.157 149.042 273.589 164.046 276.555 184.72C281.849 221.607 311.167 248.378 346.266 248.378H350.225V301.633L337.956 314.532ZM313.808 710.785C290.025 710.785 270.676 690.216 270.676 664.934C270.676 639.651 290.025 619.082 313.808 619.082H350.225V666.096C350.225 681.106 350.967 696.01 352.418 710.785H313.808ZM412.212 667.076C412.212 705.433 407.056 743.076 396.853 779.446C386.466 742.775 381.218 704.81 381.218 666.096V619.082H412.212V667.076ZM412.212 586.136H381.218V193.184C386.258 194.106 391.431 194.614 396.715 194.614C401.999 194.614 407.172 194.106 412.212 193.184V586.136ZM453.537 438.974C491.703 438.974 522.754 471.981 522.754 512.555C522.754 553.128 491.703 586.136 453.537 586.136H443.205V438.974H453.537ZM396.715 161.665C363.532 161.665 336.538 132.969 336.538 97.6957C336.538 62.4228 363.534 33.7261 396.715 33.7261C429.897 33.7261 456.892 62.4228 456.892 97.6957C456.892 132.969 429.898 161.665 396.715 161.665ZM668.187 207.516L636.139 207.521C627.58 207.522 620.642 214.899 620.644 223.996C620.645 233.094 627.585 240.469 636.142 240.467L668.194 240.462C688.473 240.459 707.623 235.275 724.585 226.137C712.7 263.627 679.336 290.713 640.117 290.713H614.164C605.607 290.713 598.668 298.09 598.668 307.186C598.668 316.283 605.607 323.66 614.164 323.66H640.115C644.104 323.66 648.043 323.441 651.933 323.035C625.883 346.189 592.596 359.384 558.128 359.384C519.439 359.384 482.983 343.456 455.475 314.533L443.205 301.633V248.378H447.164C482.263 248.378 511.581 221.607 516.875 184.72C519.841 164.046 536.273 149.042 555.947 149.042H664.143C678.927 149.042 693.689 147.08 708.022 143.205L760.19 129.105C750.805 173.907 713.117 207.509 668.187 207.516Z" fill="#320D66"/>
</svg>
