<svg width="92" height="80" viewBox="0 0 92 80" fill="none" xmlns="http://www.w3.org/2000/svg">
<path d="M84.9295 0.807007H6.89963C3.44025 0.807007 0.625488 3.62177 0.625488 7.08115V60.0198C0.625488 63.4792 3.44025 66.294 6.89963 66.294H52.4001L51.0262 74.6727C50.7677 76.2498 51.2894 77.6785 52.4219 78.4938C53.5541 79.3091 55.0736 79.3528 56.4879 78.6074L66.3046 73.4404C66.5785 73.2999 67.3332 73.2999 67.6071 73.4404L77.4238 78.6074C78.0953 78.9609 78.7909 79.137 79.4574 79.137C80.1945 79.137 80.8958 78.9215 81.4902 78.4934C82.6224 77.6781 83.1441 76.2491 82.8859 74.6719L81.5124 66.2936H84.9299C88.3892 66.2936 91.204 63.4789 91.204 60.0195V7.08115C91.2036 3.62141 88.3889 0.807007 84.9295 0.807007ZM66.9561 55.5397C60.9268 55.5397 56.0211 50.6341 56.0211 44.6048C56.0211 38.5755 60.9268 33.6699 66.9561 33.6699C72.9853 33.6699 77.891 38.5755 77.891 44.6048C77.891 50.6341 72.9853 55.5397 66.9561 55.5397ZM70.1121 68.6817C68.2833 67.7188 65.6284 67.7188 63.8 68.6817L56.8597 72.3347L59.0661 58.8762C61.4061 60.1751 64.0958 60.9172 66.9564 60.9172C69.8171 60.9172 72.5063 60.1747 74.8468 58.8762L75.7065 64.1231C75.7087 64.1317 75.7094 64.1411 75.7112 64.1497L77.0531 72.3351L70.1121 68.6817ZM85.8258 60.0198C85.8258 60.5056 85.4153 60.9161 84.9295 60.9161H80.6305L79.6485 54.9256C79.6445 54.9019 79.6381 54.8794 79.6334 54.8557C81.9046 52.0528 83.2692 48.4855 83.2692 44.6048C83.2692 35.6098 75.9514 28.292 66.9564 28.292C57.9615 28.292 50.6437 35.6098 50.6437 44.6048C50.6437 48.4855 52.0082 52.052 54.2794 54.8557C54.2748 54.879 54.2683 54.9019 54.2644 54.9252L53.2817 60.9208C53.2515 60.9197 53.2225 60.9161 53.1924 60.9161H6.89963C6.41383 60.9161 6.00332 60.5056 6.00332 60.0198V7.08115C6.00332 6.59535 6.41383 6.18484 6.89963 6.18484H84.9295C85.4153 6.18484 85.8258 6.59535 85.8258 7.08115V60.0198Z" fill="white"/>
<path d="M75.4199 16.2815H14.4711C12.9858 16.2815 11.7822 17.4851 11.7822 18.9704C11.7822 20.4558 12.9858 21.6593 14.4711 21.6593H75.4199C76.9053 21.6593 78.1089 20.4558 78.1089 18.9704C78.1089 17.4851 76.9053 16.2815 75.4199 16.2815Z" fill="white"/>
<path d="M40.2847 30.8619H14.4711C12.9858 30.8619 11.7822 32.0655 11.7822 33.5509C11.7822 35.0362 12.9858 36.2398 14.4711 36.2398H40.2847C41.7701 36.2398 42.9737 35.0362 42.9737 33.5509C42.9737 32.0655 41.7701 30.8619 40.2847 30.8619Z" fill="white"/>
</svg>
