<svg width="34" height="34" viewBox="0 0 34 34" fill="none" xmlns="http://www.w3.org/2000/svg">
<path d="M16.9999 0.679688C7.98653 0.679688 0.679932 7.98629 0.679932 16.9997C0.679932 26.0131 7.98653 33.3197 16.9999 33.3197C26.0133 33.3197 33.3199 26.0131 33.3199 16.9997C33.3199 7.98629 26.0133 0.679688 16.9999 0.679688ZM23.2763 19.0924C23.2763 19.0924 24.7196 20.517 25.0749 21.1783C25.0851 21.1919 25.0902 21.2055 25.0936 21.2123C25.2381 21.4554 25.2721 21.6441 25.2007 21.7852C25.0817 22.0198 24.6737 22.1354 24.5343 22.1456H21.9843C21.8075 22.1456 21.4369 22.0997 20.9881 21.7903C20.643 21.5489 20.303 21.1528 19.9715 20.7669C19.4768 20.1923 19.0484 19.6959 18.6166 19.6959C18.5618 19.6958 18.5073 19.7044 18.4551 19.7214C18.1287 19.8268 17.7105 20.2926 17.7105 21.5336C17.7105 21.9212 17.4045 22.1439 17.1886 22.1439H16.0207C15.6229 22.1439 13.5506 22.0045 11.7146 20.0682C9.46723 17.6967 7.44423 12.9401 7.42723 12.8959C7.29973 12.5882 7.56323 12.4233 7.85053 12.4233L10.426 12.4233C10.7694 12.4233 10.8816 12.6324 10.9598 12.8177C11.0516 13.0336 11.3882 13.8921 11.9407 14.8577C12.8366 16.4319 13.3857 17.0711 13.826 17.0711C13.9086 17.0701 13.9897 17.0491 14.0623 17.0099C14.6369 16.6903 14.5298 14.6418 14.5043 14.2168C14.5043 14.1369 14.5026 13.3005 14.2085 12.8993C13.9977 12.6086 13.639 12.4981 13.4214 12.4573C13.5095 12.3358 13.6255 12.2372 13.7597 12.17C14.1541 11.9728 14.8647 11.9439 15.5702 11.9439H15.9629C16.7279 11.9541 16.9251 12.0034 17.2022 12.0731C17.7632 12.2074 17.7751 12.5695 17.7258 13.8088C17.7105 14.1607 17.6952 14.5585 17.6952 15.0277C17.6952 15.1297 17.6901 15.2385 17.6901 15.3541C17.6731 15.9848 17.6527 16.7005 18.0981 16.9946C18.1562 17.031 18.2234 17.0504 18.2919 17.0507C18.4466 17.0507 18.9124 17.0507 20.1738 14.8866C20.5629 14.19 20.9009 13.4662 21.1853 12.7208C21.2108 12.6766 21.2856 12.5406 21.374 12.4879C21.4393 12.4546 21.5116 12.4377 21.5848 12.4386L24.6125 12.4386C24.9423 12.4386 25.1684 12.4879 25.2109 12.6154C25.2857 12.8177 25.1973 13.4348 23.8152 15.3065L23.1981 16.1208C21.9452 17.763 21.9452 17.8463 23.2763 19.0924Z" fill="#92969B"/>
</svg>
